# xmcd CD database file
#
# Track frame offsets:
#	150
#	17053
#	31540
#
# Disc length: 624 seconds
#
# Revision: 1
# Processed by: cddbd v1.5.1PL0 Copyright (c) Steve Scherf et al.
# Submitted via: CDex 1.51
#
DISCID=13026e03
DTITLE=Moby - Why Does My Heart Feel So Bad
DYEAR=1900
DGENRE=Pop
TTITLE0=Why Does My Heart Feel So Bad
TTITLE1=Honey ... Featuring Kelis - Remix Edit
TTITLE2=Flower
EXTD=
EXTT0=
EXTT1=
EXTT2=
PLAYORDER=
